<?xml version="1.0" encoding="UTF-8" standalone="no"?>
<!DOCTYPE svg PUBLIC "-//W3C//DTD SVG 1.1//EN"
 "http://www.w3.org/Graphics/SVG/1.1/DTD/svg11.dtd">
<!-- Generated by graphviz version 2.40.1 (20161225.0304)
 -->
<!-- Title: dependencies Pages: 1 -->
<svg width="709pt" height="211pt"
 viewBox="0.00 0.00 709.00 211.00" xmlns="http://www.w3.org/2000/svg" xmlns:xlink="http://www.w3.org/1999/xlink">
<g id="graph0" class="graph" transform="scale(1 1) rotate(0) translate(4 207)">
<title>dependencies</title>
<polygon fill="#ffffff" stroke="transparent" points="-4,4 -4,-207 705,-207 705,4 -4,4"/>
<text text-anchor="start" x="329.5091" y="-42.4" font-family="sans-serif" font-weight="bold" font-size="14.00" fill="#000000">Legend</text>
<polygon fill="#ffffb3" stroke="transparent" points="116.5,-10 116.5,-30 136.5,-30 136.5,-10 116.5,-10"/>
<text text-anchor="start" x="140.129" y="-15.4" font-family="sans-serif" font-size="14.00" fill="#000000"> &#160;Declarations</text>
<polygon fill="#8dd3c7" stroke="transparent" points="229.5,-10 229.5,-30 249.5,-30 249.5,-10 229.5,-10"/>
<text text-anchor="start" x="253.2251" y="-15.4" font-family="sans-serif" font-size="14.00" fill="#000000"> &#160;Module</text>
<polygon fill="#80b1d3" stroke="transparent" points="315.5,-10 315.5,-30 335.5,-30 335.5,-10 315.5,-10"/>
<text text-anchor="start" x="339.2812" y="-15.4" font-family="sans-serif" font-size="14.00" fill="#000000"> &#160;Bootstrap</text>
<polygon fill="#fdb462" stroke="transparent" points="412.5,-10 412.5,-30 432.5,-30 432.5,-10 412.5,-10"/>
<text text-anchor="start" x="436.1732" y="-15.4" font-family="sans-serif" font-size="14.00" fill="#000000"> &#160;Providers</text>
<polygon fill="#fb8072" stroke="transparent" points="508.5,-10 508.5,-30 528.5,-30 528.5,-10 508.5,-10"/>
<text text-anchor="start" x="532.2258" y="-15.4" font-family="sans-serif" font-size="14.00" fill="#000000"> &#160;Exports</text>
<g id="clust1" class="cluster">
<title>cluster_BccLogModule</title>
<polygon fill="none" stroke="#000000" stroke-dasharray="1,5" points="8,-70 8,-195 693,-195 693,-70 8,-70"/>
</g>
<g id="clust6" class="cluster">
<title>cluster_BccLogModule_providers</title>
<polygon fill="none" stroke="#000000" points="16,-78 16,-130 685,-130 685,-78 16,-78"/>
</g>
<!-- BCCLoggerHttpService -->
<g id="node1" class="node">
<title>BCCLoggerHttpService</title>
<ellipse fill="#fdb462" stroke="#000000" cx="573" cy="-104" rx="104.2323" ry="18"/>
<text text-anchor="middle" x="573" y="-99.8" font-family="Times,serif" font-size="14.00" fill="#000000">BCCLoggerHttpService</text>
</g>
<!-- BccLogModule -->
<g id="node4" class="node">
<title>BccLogModule</title>
<polygon fill="#8dd3c7" stroke="#000000" points="414.8683,-187 411.8683,-191 390.8683,-191 387.8683,-187 311.1317,-187 311.1317,-151 414.8683,-151 414.8683,-187"/>
<text text-anchor="middle" x="363" y="-164.8" font-family="Times,serif" font-size="14.00" fill="#000000">BccLogModule</text>
</g>
<!-- BCCLoggerHttpService&#45;&gt;BccLogModule -->
<g id="edge1" class="edge">
<title>BCCLoggerHttpService&#45;&gt;BccLogModule</title>
<path fill="none" stroke="#000000" d="M573,-122.1061C573,-141.3391 573,-169 573,-169 573,-169 424.9101,-169 424.9101,-169"/>
<polygon fill="#000000" stroke="#000000" points="424.9102,-165.5001 414.9101,-169 424.9101,-172.5001 424.9102,-165.5001"/>
</g>
<!-- BCCLoggerService -->
<g id="node2" class="node">
<title>BCCLoggerService</title>
<ellipse fill="#fdb462" stroke="#000000" cx="363" cy="-104" rx="87.3983" ry="18"/>
<text text-anchor="middle" x="363" y="-99.8" font-family="Times,serif" font-size="14.00" fill="#000000">BCCLoggerService</text>
</g>
<!-- BCCLoggerService&#45;&gt;BccLogModule -->
<g id="edge2" class="edge">
<title>BCCLoggerService&#45;&gt;BccLogModule</title>
<path fill="none" stroke="#000000" d="M363,-122.1061C363,-122.1061 363,-140.991 363,-140.991"/>
<polygon fill="#000000" stroke="#000000" points="359.5001,-140.9909 363,-150.991 366.5001,-140.991 359.5001,-140.9909"/>
</g>
<!-- CustomBCCLoggerService -->
<g id="node3" class="node">
<title>CustomBCCLoggerService</title>
<ellipse fill="#fdb462" stroke="#000000" cx="141" cy="-104" rx="117.4954" ry="18"/>
<text text-anchor="middle" x="141" y="-99.8" font-family="Times,serif" font-size="14.00" fill="#000000">CustomBCCLoggerService</text>
</g>
<!-- CustomBCCLoggerService&#45;&gt;BccLogModule -->
<g id="edge3" class="edge">
<title>CustomBCCLoggerService&#45;&gt;BccLogModule</title>
<path fill="none" stroke="#000000" d="M141,-122.1061C141,-141.3391 141,-169 141,-169 141,-169 300.9509,-169 300.9509,-169"/>
<polygon fill="#000000" stroke="#000000" points="300.9509,-172.5001 310.9509,-169 300.9508,-165.5001 300.9509,-172.5001"/>
</g>
</g>
</svg>
